<svg width="28" height="28" viewBox="0 0 28 28" fill="none" xmlns="http://www.w3.org/2000/svg">
<g clip-path="url(#clip0_51_2152)">
<path d="M28 7.52443C28 7.235 27.8915 6.98178 27.6744 6.76477C27.2403 6.33069 26.5529 6.33069 26.155 6.76477L13.9999 18.956L1.84495 6.76477C1.41087 6.33069 0.723499 6.33069 0.325562 6.76477C-0.108521 7.19885 -0.108521 7.88622 0.325562 8.28416L13.2403 21.2351C13.4574 21.4522 13.7106 21.5607 13.9999 21.5607C14.2894 21.5607 14.5787 21.4522 14.7596 21.2351L27.6744 8.28416C27.8915 8.06709 28 7.81387 28 7.52443Z" fill="#A8A8A8"/>
</g>
<defs>
<clipPath id="clip0_51_2152">
<rect width="28" height="28" fill="white" transform="matrix(0 1 1 0 0 0)"/>
</clipPath>
</defs>
</svg>
