<svg width="43" height="82" viewBox="0 0 43 82" fill="none" xmlns="http://www.w3.org/2000/svg">
<path d="M42.125 76.0146C42.125 79.1219 39.5606 81.6396 36.3958 81.6396H6.60417C3.44052 81.6396 0.875 79.1219 0.875 76.0146V46.7646C0.875 43.6574 3.44052 41.1396 6.60417 41.1396H36.3958C39.5606 41.1396 42.125 43.6574 42.125 46.7646V76.0146Z" fill="#1976D2"/>
<path d="M35.1778 54.6858C35.2305 54.5159 35.2557 54.3584 35.2489 54.2178C35.2317 53.8105 34.9464 53.5146 34.2749 53.5146H31.2751C30.5177 53.5146 30.1682 53.9646 29.9643 54.4158C29.9643 54.4158 28.0943 58.1946 25.939 60.6865C25.24 61.4076 24.8848 61.3896 24.5067 61.3896C24.3039 61.3896 23.7917 61.1489 23.7917 60.4885V54.6554C23.7917 53.8746 23.5934 53.5146 22.9529 53.5146H17.6259C17.1596 53.5146 16.9167 53.8746 16.9167 54.2358C16.9167 54.9861 17.9456 55.1661 18.0625 57.2688V61.3446C18.0625 62.3346 17.8872 62.5146 17.5091 62.5146C16.4893 62.5146 14.4818 59.1396 13.1377 54.7161C12.8467 53.8454 12.5556 53.5146 11.7982 53.5146H8.76979C7.89552 53.5146 7.75 53.9354 7.75 54.3854C7.75 55.1965 8.4375 59.5818 12.1901 64.624C14.9115 68.2803 18.4968 70.3896 21.6707 70.3896C23.5934 70.3896 23.7905 69.9093 23.7905 69.1589V65.8154C23.7917 64.9143 24.0014 64.7646 24.6132 64.7646C25.0498 64.7646 25.9401 65.0459 27.6589 67.0146C29.6411 69.2849 30.0009 70.3896 31.1376 70.3896H34.1374C34.8341 70.3896 35.234 70.1028 35.25 69.5459C35.2534 69.4041 35.2328 69.2455 35.1858 69.0689C34.9635 68.4209 33.9437 66.8369 32.6719 65.3271C31.9672 64.4913 31.2717 63.6633 30.952 63.2133C30.7377 62.9196 30.6564 62.7126 30.6667 62.5146C30.677 62.3065 30.787 62.1085 30.952 61.8318C30.9222 61.8318 34.7997 56.4869 35.1778 54.6858Z" fill="white"/>
</svg>
